<svg width="150" height="50" viewBox="0 0 246 77" fill="none" xmlns="http://www.w3.org/2000/svg">
<path d="M141.238 74V62.7273H148.229V64.1914H142.939V67.6261H147.728V69.0847H142.939V74H141.238ZM161.755 62.7273H163.461V70.1415C163.461 70.9305 163.276 71.6295 162.905 72.2386C162.534 72.8441 162.013 73.3211 161.342 73.6697C160.67 74.0147 159.883 74.1871 158.98 74.1871C158.081 74.1871 157.296 74.0147 156.625 73.6697C155.953 73.3211 155.432 72.8441 155.061 72.2386C154.691 71.6295 154.505 70.9305 154.505 70.1415V62.7273H156.206V70.0039C156.206 70.514 156.318 70.9672 156.542 71.3635C156.77 71.7598 157.091 72.0717 157.505 72.2992C157.92 72.523 158.412 72.6349 158.98 72.6349C159.553 72.6349 160.046 72.523 160.461 72.2992C160.879 72.0717 161.199 71.7598 161.419 71.3635C161.643 70.9672 161.755 70.514 161.755 70.0039V62.7273ZM176.267 65.6886C176.208 65.1675 175.966 64.7638 175.54 64.4776C175.115 64.1877 174.579 64.0428 173.933 64.0428C173.471 64.0428 173.071 64.1162 172.733 64.263C172.396 64.4061 172.133 64.6042 171.946 64.8574C171.763 65.1069 171.671 65.3913 171.671 65.7106C171.671 65.9785 171.733 66.2096 171.858 66.4041C171.986 66.5986 172.153 66.7619 172.359 66.894C172.568 67.0224 172.792 67.1307 173.03 67.2188C173.269 67.3031 173.498 67.3729 173.718 67.4279L174.819 67.7141C175.179 67.8022 175.548 67.9215 175.926 68.0719C176.304 68.2224 176.654 68.4205 176.977 68.6664C177.3 68.9122 177.56 69.2168 177.759 69.5801C177.96 69.9434 178.061 70.3782 178.061 70.8846C178.061 71.5231 177.896 72.09 177.566 72.5854C177.239 73.0808 176.764 73.4716 176.14 73.7578C175.52 74.044 174.77 74.1871 173.889 74.1871C173.045 74.1871 172.315 74.0532 171.698 73.7853C171.082 73.5175 170.599 73.1377 170.251 72.646C169.902 72.1506 169.71 71.5634 169.673 70.8846H171.379C171.412 71.2919 171.544 71.6313 171.775 71.9029C172.01 72.1708 172.309 72.3707 172.673 72.5028C173.04 72.6313 173.441 72.6955 173.878 72.6955C174.359 72.6955 174.786 72.6203 175.161 72.4698C175.539 72.3157 175.836 72.1029 176.052 71.8313C176.269 71.5561 176.377 71.235 176.377 70.8681C176.377 70.5342 176.282 70.2608 176.091 70.0479C175.904 69.8351 175.649 69.659 175.326 69.5195C175.006 69.3801 174.645 69.2572 174.241 69.1507L172.909 68.7875C172.007 68.5416 171.291 68.1802 170.763 67.7031C170.238 67.2261 169.976 66.5949 169.976 65.8097C169.976 65.1602 170.152 64.5932 170.504 64.1088C170.856 63.6245 171.333 63.2483 171.935 62.9805C172.537 62.7089 173.216 62.5732 173.972 62.5732C174.735 62.5732 175.408 62.7071 175.992 62.975C176.579 63.2428 177.041 63.6116 177.379 64.0813C177.716 64.5473 177.893 65.0831 177.907 65.6886H176.267ZM183.723 64.1914V62.7273H192.447V64.1914H188.93V74H187.235V64.1914H183.723ZM198.56 74V62.7273H205.627V64.1914H200.261V67.6261H205.259V69.0847H200.261V72.5359H205.694V74H198.56ZM212.084 74V62.7273H216.102C216.976 62.7273 217.701 62.8777 218.277 63.1786C218.856 63.4795 219.289 63.896 219.576 64.4281C219.862 64.9565 220.005 65.5675 220.005 66.261C220.005 66.9509 219.86 67.5582 219.57 68.0829C219.284 68.604 218.851 69.0095 218.271 69.2994C217.695 69.5893 216.97 69.7342 216.097 69.7342H213.053V68.2701H215.943C216.493 68.2701 216.941 68.1912 217.286 68.0334C217.634 67.8756 217.89 67.6462 218.051 67.3453C218.212 67.0444 218.293 66.683 218.293 66.261C218.293 65.8353 218.211 65.4666 218.045 65.1547C217.884 64.8427 217.629 64.6042 217.28 64.4391C216.935 64.2703 216.482 64.1859 215.921 64.1859H213.785V74H212.084ZM217.649 68.9141L220.434 74H218.497L215.767 68.9141H217.649ZM227.96 62.7273V74H226.26V62.7273H227.96ZM235.575 74H233.769L237.826 62.7273H239.791L243.847 74H242.042L238.855 64.7749H238.767L235.575 74ZM235.877 69.5856H241.734V71.0167H235.877V69.5856Z" fill="#FC4108"/>
<path class="modify" d="M18.679 28.9091V58H12.5284V28.9091H18.679ZM47.6717 28.9091V58H42.3592L29.703 39.6903H29.4899V58H23.3393V28.9091H28.7371L41.2939 47.2045H41.5496V28.9091H47.6717ZM51.2455 33.9801V28.9091H75.1375V33.9801H66.2313V58H60.1517V33.9801H51.2455ZM78.6722 58V28.9091H98.2744V33.9801H84.8227V40.9119H97.2659V45.983H84.8227V52.929H98.3313V58H78.6722ZM102.764 58V28.9091H114.242C116.439 28.9091 118.314 29.3021 119.867 30.0881C121.429 30.8646 122.618 31.9678 123.432 33.3977C124.256 34.8182 124.668 36.4896 124.668 38.4119C124.668 40.3437 124.251 42.0057 123.418 43.3977C122.584 44.7803 121.377 45.8409 119.796 46.5795C118.224 47.3182 116.32 47.6875 114.085 47.6875H106.401V42.7443H113.091C114.265 42.7443 115.241 42.5833 116.017 42.2614C116.794 41.9394 117.371 41.4564 117.75 40.8125C118.138 40.1686 118.333 39.3684 118.333 38.4119C118.333 37.446 118.138 36.6316 117.75 35.9688C117.371 35.3059 116.789 34.804 116.003 34.4631C115.226 34.1127 114.246 33.9375 113.063 33.9375H108.915V58H102.764ZM118.475 44.7614L125.705 58H118.915L111.841 44.7614H118.475Z" fill="black"/>
<circle cx="16.5" cy="17.5" r="8.5" fill="#FC4108"/>
<rect x="1.5" y="1.5" width="132" height="74" rx="7.5" stroke="#FC4108" stroke-width="3"/>
<path  class="modify" d="M154.693 36.1818V40.1591H141.795V36.1818H154.693ZM145.02 58V34.1222C145.02 32.6544 145.323 31.4328 145.929 30.4574C146.545 29.482 147.368 28.7528 148.401 28.2699C149.433 27.7869 150.579 27.5455 151.838 27.5455C152.728 27.5455 153.519 27.6165 154.21 27.7585C154.902 27.9006 155.413 28.0284 155.744 28.142L154.722 32.1193C154.504 32.053 154.229 31.9867 153.898 31.9205C153.566 31.8447 153.197 31.8068 152.79 31.8068C151.833 31.8068 151.156 32.0388 150.759 32.5028C150.37 32.9574 150.176 33.6108 150.176 34.4631V58H145.02ZM173.026 48.8239V36.1818H178.168V58H173.183V54.1222H172.955C172.463 55.3437 171.653 56.3428 170.526 57.1193C169.409 57.8958 168.031 58.2841 166.393 58.2841C164.963 58.2841 163.699 57.9669 162.6 57.3324C161.511 56.6884 160.659 55.7557 160.043 54.5341C159.428 53.303 159.12 51.8163 159.12 50.0739V36.1818H164.262V49.2784C164.262 50.661 164.641 51.7595 165.399 52.5739C166.156 53.3883 167.15 53.7955 168.382 53.7955C169.139 53.7955 169.873 53.6108 170.583 53.2415C171.293 52.8722 171.876 52.3229 172.33 51.5938C172.794 50.8551 173.026 49.9318 173.026 48.8239ZM201.1 41.9489L196.413 42.4602C196.28 41.9867 196.048 41.5417 195.717 41.125C195.395 40.7083 194.959 40.3722 194.41 40.1165C193.861 39.8608 193.188 39.733 192.393 39.733C191.323 39.733 190.423 39.965 189.694 40.429C188.974 40.893 188.619 41.4943 188.629 42.233C188.619 42.8674 188.851 43.3835 189.325 43.7812C189.808 44.179 190.603 44.5057 191.711 44.7614L195.433 45.5568C197.497 46.0019 199.031 46.7074 200.035 47.6733C201.048 48.6392 201.56 49.9034 201.569 51.4659C201.56 52.839 201.157 54.0511 200.362 55.1023C199.576 56.1439 198.482 56.9583 197.081 57.5455C195.679 58.1326 194.069 58.4261 192.251 58.4261C189.581 58.4261 187.431 57.8674 185.802 56.75C184.173 55.6231 183.203 54.0559 182.89 52.0483L187.904 51.5653C188.132 52.5502 188.615 53.2936 189.353 53.7955C190.092 54.2973 191.053 54.5483 192.237 54.5483C193.458 54.5483 194.438 54.2973 195.177 53.7955C195.925 53.2936 196.299 52.6733 196.299 51.9347C196.299 51.3097 196.058 50.7936 195.575 50.3864C195.101 49.9792 194.363 49.6667 193.359 49.4489L189.637 48.6676C187.545 48.232 185.996 47.4981 184.992 46.4659C183.989 45.4242 183.492 44.108 183.501 42.517C183.492 41.1723 183.856 40.0076 184.595 39.0227C185.343 38.0284 186.38 37.2614 187.706 36.7216C189.041 36.1723 190.58 35.8977 192.322 35.8977C194.879 35.8977 196.891 36.4422 198.359 37.5312C199.836 38.6203 200.75 40.0928 201.1 41.9489ZM217.104 36.1818V40.1591H204.562V36.1818H217.104ZM207.658 30.9545H212.8V51.4375C212.8 52.1288 212.904 52.6591 213.113 53.0284C213.33 53.3883 213.615 53.6345 213.965 53.767C214.315 53.8996 214.704 53.9659 215.13 53.9659C215.452 53.9659 215.745 53.9422 216.01 53.8949C216.285 53.8475 216.493 53.8049 216.635 53.767L217.502 57.7869C217.227 57.8816 216.834 57.9858 216.323 58.0994C215.821 58.2131 215.205 58.2794 214.476 58.2983C213.188 58.3362 212.028 58.142 210.996 57.7159C209.964 57.2803 209.145 56.608 208.539 55.6989C207.942 54.7898 207.649 53.6534 207.658 52.2898V30.9545ZM228.083 58.4403C226.7 58.4403 225.455 58.1941 224.347 57.7017C223.249 57.1998 222.377 56.4612 221.734 55.4858C221.099 54.5104 220.782 53.3078 220.782 51.8778C220.782 50.6468 221.009 49.6288 221.464 48.8239C221.918 48.0189 222.538 47.375 223.324 46.892C224.11 46.4091 224.996 46.0445 225.981 45.7983C226.975 45.5426 228.002 45.358 229.063 45.2443C230.341 45.1117 231.378 44.9934 232.174 44.8892C232.969 44.7756 233.547 44.6051 233.907 44.3778C234.276 44.1411 234.461 43.7765 234.461 43.2841V43.1989C234.461 42.1288 234.144 41.3002 233.509 40.7131C232.875 40.1259 231.961 39.8324 230.768 39.8324C229.508 39.8324 228.509 40.107 227.77 40.6562C227.041 41.2055 226.549 41.8542 226.293 42.6023L221.492 41.9205C221.871 40.5947 222.496 39.4867 223.367 38.5966C224.238 37.697 225.304 37.0246 226.563 36.5795C227.823 36.125 229.215 35.8977 230.739 35.8977C231.79 35.8977 232.837 36.0208 233.878 36.267C234.92 36.5133 235.872 36.9205 236.734 37.4886C237.595 38.0473 238.287 38.8097 238.807 39.7756C239.338 40.7415 239.603 41.9489 239.603 43.3977V58H234.66V55.0028H234.489C234.177 55.6089 233.736 56.1771 233.168 56.7074C232.609 57.2282 231.904 57.6496 231.052 57.9716C230.209 58.2841 229.219 58.4403 228.083 58.4403ZM229.418 54.6619C230.45 54.6619 231.345 54.4583 232.103 54.0511C232.86 53.6345 233.443 53.0852 233.85 52.4034C234.267 51.7216 234.475 50.9782 234.475 50.1733V47.6023C234.314 47.7348 234.039 47.858 233.651 47.9716C233.272 48.0852 232.846 48.1847 232.373 48.2699C231.899 48.3551 231.43 48.4309 230.966 48.4972C230.502 48.5634 230.1 48.6203 229.759 48.6676C228.992 48.7718 228.305 48.9422 227.699 49.179C227.093 49.4157 226.615 49.7472 226.265 50.1733C225.914 50.59 225.739 51.1297 225.739 51.7926C225.739 52.7396 226.085 53.4545 226.776 53.9375C227.467 54.4205 228.348 54.6619 229.418 54.6619Z" fill="black"/>
    <!-- <style>
        @media (prefers-color-scheme: dark) {
            .modify {
                fill: white;
            }
        }
    </style> -->
</svg>
